<?xml version="1.0" encoding="UTF-8"?>
<!-- Created with Inkscape (http://www.inkscape.org/) -->
<svg width="210mm" height="297mm" version="1.1" viewBox="0 0 210 297" xmlns="http://www.w3.org/2000/svg">
 <g stroke="#f0f">
  <g fill="none">
   <g>
    <g stroke-width=".865">
     <path d="m39.823 122.66h9.5184"/>
     <path d="m146.33 122.66h4.458"/>
     <path d="m166.74 122.66h9.638"/>
    </g>
    <g stroke-width=".465">
     <path d="m136.67 97.215v19.513"/>
     <path d="m79.441 97.179v19.513"/>
     <path d="m79.441 129.14v19.317"/>
     <path d="m136.64 128.93v19.317"/>
    </g>
   </g>
   <ellipse cx="53.719" cy="122.82" rx="1.5175" ry="1.5588" stroke-width=".489"/>
   <ellipse cx="162.65" cy="122.82" rx="1.5175" ry="1.5588" stroke-width=".489"/>
   <path d="m65.266 122.66h14.678" stroke-width=".865"/>
   <path d="m136.1 122.66h5.2843" stroke-width=".865"/>
  </g>
  <rect x="81.756" y="99.086" width="52.255" height="47.493" fill="#f0f" opacity=".10979" stroke-width="1.165"/>
  <g fill="none" stroke-width=".865">
   <path d="m108.16 113.42v-10.815"/>
   <path d="m103.29 118.15-3.0427-3.175"/>
   <path d="m115.72 115.23-2.8774 2.8443"/>
   <path d="m100.48 130.41 2.8443-2.8112"/>
   <path d="m115.85 130.54-3.0096-3.0427"/>
  </g>
  <path transform="scale(.26458)" d="m408.43 445.02a19.851 19.217 0 0 0-19.852 19.217 19.851 19.217 0 0 0 19.852 19.217 19.851 19.217 0 0 0 19.85-19.217 19.851 19.217 0 0 0-19.85-19.217zm0.13672 12.918a6.1874 6.2812 0 0 1 6.1875 6.2812 6.1874 6.2812 0 0 1-6.1875 6.2812 6.1874 6.2812 0 0 1-6.1875-6.2812 6.1874 6.2812 0 0 1 6.1875-6.2812z" fill="#f0f" opacity=".50445" stroke-width="1.0406"/>
 </g>
</svg>
